<svg xmlns="http://www.w3.org/2000/svg" viewBox="58.676 -18.901 1013.993 934.517" fill="#D4A24A" color="#D4A24A" xmlns:c2pa="http://c2pa.org/manifest"><metadata><c2pa:manifest>AAAWgmp1bWIAAAAeanVtZGMycGEAEQAQgAAAqgA4m3EDYzJwYQAAABZcanVtYgAAAEdqdW1kYzJtYQARABCAAACqADibcQN1cm46YzJwYTpmNzFhNzEwMS00MWZiLTQyZGUtYjhmOC1hM2IwYmRlNDJjNGIAAAADl2p1bWIAAAApanVtZGMyYXMAEQAQgAAAqgA4m3EDYzJwYS5hc3NlcnRpb25zAAAAALxqdW1iAAAARGp1bWRjYm9yABEAEIAAAKoAOJtxE2MycGEuaW5ncmVkaWVudC52MwAAAAAYYzJzaAkA7L38NDJVyMA71H/ASdgAAABwY2JvcqNpZGM6Zm9ybWF0bWltYWdlL3N2Zyt4bWxqaW5zdGFuY2VJRHgseG1wOmlpZDo3OTE1MjFkMC1kMTEwLTRjNWItYjkzYi1iNmZhNTNiNWY2NjhscmVsYXRpb25zaGlwaHBhcmVudE9mAAAB4mp1bWIAAABBanVtZGNib3IAEQAQgAAAqgA4m3ETYzJwYS5hY3Rpb25zLnYyAAAAABhjMnNoahRmvp4PnhGZJ3+a7QeOFQAAAZljYm9yomdhY3Rpb25zgqJmYWN0aW9ua2MycGEub3BlbmVkanBhcmFtZXRlcnOha2luZ3JlZGllbnRzgaJjdXJseC1zZWxmI2p1bWJmPWMycGEuYXNzZXJ0aW9ucy9jMnBhLmluZ3JlZGllbnQudjNkaGFzaFggGR/kHbNEXTxQkdcuW8N7Bs7wfs89A8bPMR+hRKxSDrikZmFjdGlvbngdY29tLmFudGhyb3BpYy5jbGF1ZGUucHJvdmlkZWRqcGFyYW1ldGVyc6F4H2NvbS5hbnRocm9waWMub3JpZ2luLWNvbmZpZGVuY2VndW5rbm93bmtkZXNjcmlwdGlvbnhmQ2xhdWRlIHByb3ZpZGVkIHRoaXMgZmlsZSBhdCB0aGUgcmVxdWVzdCBvZiBhIHVzZXIgYW5kIG1heSBoYXZlIGNyZWF0ZWQgb3IgbW9kaWZpZWQgdGhlIGZpbGUgY29udGVudHMubXNvZnR3YXJlQWdlbnShZG5hbWVmQ2xhdWRlcmFsbEFjdGlvbnNJbmNsdWRlZPUAAADIanVtYgAAAEBqdW1kY2JvcgARABCAAACqADibcRNjMnBhLmhhc2guZGF0YQAAAAAYYzJzaPoulNuZpb9Tmf8hXapTl34AAACAY2JvcqVjYWxnZnNoYTI1NmNwYWRNAAAAAAAAAAAAAAAAAGRoYXNoWCDgdd/11p/0nxMNpNZAPXIARR+7n1z02+NJ69bv1+zWVWRuYW1lbmp1bWJmIG1hbmlmZXN0amV4Y2x1c2lvbnOBomVzdGFydBiwZmxlbmd0aBkeBAAAAj5qdW1iAAAAJ2p1bWRjMmNsABEAEIAAAKoAOJtxA2MycGEuY2xhaW0udjIAAAACD2Nib3KlY2FsZ2ZzaGEyNTZpc2lnbmF0dXJleE1zZWxmI2p1bWJmPS9jMnBhL3VybjpjMnBhOmY3MWE3MTAxLTQxZmItNDJkZS1iOGY4LWEzYjBiZGU0MmM0Yi9jMnBhLnNpZ25hdHVyZWppbnN0YW5jZUlEeCx4bXA6aWlkOjQ2MTYwNWExLTZiYTUtNDA0OC05ZmVjLWIxMWY5MGIxOWNiZHJjcmVhdGVkX2Fzc2VydGlvbnODomN1cmx4LXNlbGYjanVtYmY9YzJwYS5hc3NlcnRpb25zL2MycGEuaW5ncmVkaWVudC52M2RoYXNoWCAZH+Qds0RdPFCR1y5bw3sGzvB+zz0Dxs8xH6FErFIOuKJjdXJseCpzZWxmI2p1bWJmPWMycGEuYXNzZXJ0aW9ucy9jMnBhLmFjdGlvbnMudjJkaGFzaFggodoCXd3kLkEIuBRPsbvecTqBPyAjgIpiH0XeMmqNVXyiY3VybHgpc2VsZiNqdW1iZj1jMnBhLmFzc2VydGlvbnMvYzJwYS5oYXNoLmRhdGFkaGFzaFgg+NHUlIBOLKxhDLbn4FOVw+tBGqDHMX4vHQ4vF4r3wqF0Y2xhaW1fZ2VuZXJhdG9yX2luZm+jZG5hbWVvQW50aHJvcGljIEZpbGVzZ3ZlcnNpb25lMS4wLjBrc3BlY1ZlcnNpb25lMi40LjAAABA4anVtYgAAAChqdW1kYzJjcwARABCAAACqADibcQNjMnBhLnNpZ25hdHVyZQAAABAIY2JvctKEWQISogEmGCFZAgowggIGMIIBjaADAgECAhRA5aAK7sI50L64g/oGQgU9Z1UTADAKBggqhkjOPQQDAzBJMRcwFQYDVQQKEw5BbnRocm9waWMsIFBCQzEuMCwGA1UEAxMlQW50aHJvcGljIENvbnRlbnQgQ3JlZGVudGlhbHMgUm9vdCBDQTAeFw0yNjA4MDcxODQzNTZaFw0yODA4MDYxOTQzNTZaMEQxFzAVBgNVBAoTDkFudGhyb3BpYywgUEJDMSkwJwYDVQQDEyBBbnRocm9waWMgQ2xhdWRlIENvbnRlbnQgU2lnbmluZzBZMBMGByqGSM49AgEGCCqGSM49AwEHA0IABJh6CmvLUBgFFNU0vUKlOVtE6djd17L5SuwX0LemFisBM3dkd/3cyjxFA3Qo5S46fX0/ihY0VZ7mfb9KF703t5OjWDBWMA4GA1UdDwEB/wQEAwIHgDAVBgNVHSUEDjAMBgorBgEEAYPoXgIBMAwGA1UdEwEB/wQCMAAwHwYDVR0jBBgwFoAUzlHiBIFOZFsj+OPEz5o+nMHXXMIwCgYIKoZIzj0EAwMDZwAwZAIwMXMdFJ4BetLLVY7ORuE9noqbbAZOZn/aArXyTwFAZfKrPzxF2vPoJNf1+UCdg1XGAjBwX1zd9WGqYkqmL5SFqw1QySjr1zJfpJM9+1rdDwSPLMOPOjKuiXjoU/pUUeG9RwmhY3BhZFkNngAAAAAAAAAAAAAAAAAAAAAAAAAAAAAAAAAAAAAAAAAAAAAAAAAAAAAAAAAAAAAAAAAAAAAAAAAAAAAAAAAAAAAAAAAAAAAAAAAAAAAAAAAAAAAAAAAAAAAAAAAAAAAAAAAAAAAAAAAAAAAAAAAAAAAAAAAAAAAAAAAAAAAAAAAAAAAAAAAAAAAAAAAAAAAAAAAAAAAAAAAAAAAAAAAAAAAAAAAAAAAAAAAAAAAAAAAAAAAAAAAAAAAAAAAAAAAAAAAAAAAAAAAAAAAAAAAAAAAAAAAAAAAAAAAAAAAAAAAAAAAAAAAAAAAAAAAAAAAAAAAAAAAAAAAAAAAAAAAAAAAAAAAAAAAAAAAAAAAAAAAAAAAAAAAAAAAAAAAAAAAAAAAAAAAAAAAAAAAAAAAAAAAAAAAAAAAAAAAAAAAAAAAAAAAAAAAAAAAAAAAAAAAAAAAAAAAAAAAAAAAAAAAAAAAAAAAAAAAAAAAAAAAAAAAAAAAAAAAAAAAAAAAAAAAAAAAAAAAAAAAAAAAAAAAAAAAAAAAAAAAAAAAAAAAAAAAAAAAAAAAAAAAAAAAAAAAAAAAAAAAAAAAAAAAAAAAAAAAAAAAAAAAAAAAAAAAAAAAAAAAAAAAAAAAAAAAAAAAAAAAAAAAAAAAAAAAAAAAAAAAAAAAAAAAAAAAAAAAAAAAAAAAAAAAAAAAAAAAAAAAAAAAAAAAAAAAAAAAAAAAAAAAAAAAAAAAAAAAAAAAAAAAAAAAAAAAAAAAAAAAAAAAAAAAAAAAAAAAAAAAAAAAAAAAAAAAAAAAAAAAAAAAAAAAAAAAAAAAAAAAAAAAAAAAAAAAAAAAAAAAAAAAAAAAAAAAAAAAAAAAAAAAAAAAAAAAAAAAAAAAAAAAAAAAAAAAAAAAAAAAAAAAAAAAAAAAAAAAAAAAAAAAAAAAAAAAAAAAAAAAAAAAAAAAAAAAAAAAAAAAAAAAAAAAAAAAAAAAAAAAAAAAAAAAAAAAAAAAAAAAAAAAAAAAAAAAAAAAAAAAAAAAAAAAAAAAAAAAAAAAAAAAAAAAAAAAAAAAAAAAAAAAAAAAAAAAAAAAAAAAAAAAAAAAAAAAAAAAAAAAAAAAAAAAAAAAAAAAAAAAAAAAAAAAAAAAAAAAAAAAAAAAAAAAAAAAAAAAAAAAAAAAAAAAAAAAAAAAAAAAAAAAAAAAAAAAAAAAAAAAAAAAAAAAAAAAAAAAAAAAAAAAAAAAAAAAAAAAAAAAAAAAAAAAAAAAAAAAAAAAAAAAAAAAAAAAAAAAAAAAAAAAAAAAAAAAAAAAAAAAAAAAAAAAAAAAAAAAAAAAAAAAAAAAAAAAAAAAAAAAAAAAAAAAAAAAAAAAAAAAAAAAAAAAAAAAAAAAAAAAAAAAAAAAAAAAAAAAAAAAAAAAAAAAAAAAAAAAAAAAAAAAAAAAAAAAAAAAAAAAAAAAAAAAAAAAAAAAAAAAAAAAAAAAAAAAAAAAAAAAAAAAAAAAAAAAAAAAAAAAAAAAAAAAAAAAAAAAAAAAAAAAAAAAAAAAAAAAAAAAAAAAAAAAAAAAAAAAAAAAAAAAAAAAAAAAAAAAAAAAAAAAAAAAAAAAAAAAAAAAAAAAAAAAAAAAAAAAAAAAAAAAAAAAAAAAAAAAAAAAAAAAAAAAAAAAAAAAAAAAAAAAAAAAAAAAAAAAAAAAAAAAAAAAAAAAAAAAAAAAAAAAAAAAAAAAAAAAAAAAAAAAAAAAAAAAAAAAAAAAAAAAAAAAAAAAAAAAAAAAAAAAAAAAAAAAAAAAAAAAAAAAAAAAAAAAAAAAAAAAAAAAAAAAAAAAAAAAAAAAAAAAAAAAAAAAAAAAAAAAAAAAAAAAAAAAAAAAAAAAAAAAAAAAAAAAAAAAAAAAAAAAAAAAAAAAAAAAAAAAAAAAAAAAAAAAAAAAAAAAAAAAAAAAAAAAAAAAAAAAAAAAAAAAAAAAAAAAAAAAAAAAAAAAAAAAAAAAAAAAAAAAAAAAAAAAAAAAAAAAAAAAAAAAAAAAAAAAAAAAAAAAAAAAAAAAAAAAAAAAAAAAAAAAAAAAAAAAAAAAAAAAAAAAAAAAAAAAAAAAAAAAAAAAAAAAAAAAAAAAAAAAAAAAAAAAAAAAAAAAAAAAAAAAAAAAAAAAAAAAAAAAAAAAAAAAAAAAAAAAAAAAAAAAAAAAAAAAAAAAAAAAAAAAAAAAAAAAAAAAAAAAAAAAAAAAAAAAAAAAAAAAAAAAAAAAAAAAAAAAAAAAAAAAAAAAAAAAAAAAAAAAAAAAAAAAAAAAAAAAAAAAAAAAAAAAAAAAAAAAAAAAAAAAAAAAAAAAAAAAAAAAAAAAAAAAAAAAAAAAAAAAAAAAAAAAAAAAAAAAAAAAAAAAAAAAAAAAAAAAAAAAAAAAAAAAAAAAAAAAAAAAAAAAAAAAAAAAAAAAAAAAAAAAAAAAAAAAAAAAAAAAAAAAAAAAAAAAAAAAAAAAAAAAAAAAAAAAAAAAAAAAAAAAAAAAAAAAAAAAAAAAAAAAAAAAAAAAAAAAAAAAAAAAAAAAAAAAAAAAAAAAAAAAAAAAAAAAAAAAAAAAAAAAAAAAAAAAAAAAAAAAAAAAAAAAAAAAAAAAAAAAAAAAAAAAAAAAAAAAAAAAAAAAAAAAAAAAAAAAAAAAAAAAAAAAAAAAAAAAAAAAAAAAAAAAAAAAAAAAAAAAAAAAAAAAAAAAAAAAAAAAAAAAAAAAAAAAAAAAAAAAAAAAAAAAAAAAAAAAAAAAAAAAAAAAAAAAAAAAAAAAAAAAAAAAAAAAAAAAAAAAAAAAAAAAAAAAAAAAAAAAAAAAAAAAAAAAAAAAAAAAAAAAAAAAAAAAAAAAAAAAAAAAAAAAAAAAAAAAAAAAAAAAAAAAAAAAAAAAAAAAAAAAAAAAAAAAAAAAAAAAAAAAAAAAAAAAAAAAAAAAAAAAAAAAAAAAAAAAAAAAAAAAAAAAAAAAAAAAAAAAAAAAAAAAAAAAAAAAAAAAAAAAAAAAAAAAAAAAAAAAAAAAAAAAAAAAAAAAAAAAAAAAAAAAAAAAAAAAAAAAAAAAAAAAAAAAAAAAAAAAAAAAAAAAAAAAAAAAAAAAAAAAAAAAAAAAAAAAAAAAAAAAAAAAAAAAAAAAAAAAAAAAAAAAAAAAAAAAAAAAAAAAAAAAAAAAAAAAAAAAAAAAAAAAAAAAAAAAAAAAAAAAAAAAAAAAAAAAAAAAAAAAAAAAAAAAAAAAAAAAAAAAAAAAAAAAAAAAAAAAAAAAAAAAAAAAAAAAAAAAAAAAAAAAAAAAAAAAAAAAAAAAAAAAAAAAAAAAAAAAAAAAAAAAAAAAAAAAAAAAAAAAAAAAAAAAAAAAAAAAAAAAAAAAAAAAAAAAAAAAAAAAAAAAAAAAAAAAAAAAAAAAAAAAAAAAAAAAAAAAAAAAAAAAAAAAAAAAAAAAAAAAAAAAAAAAAAAAAAAAAAAAAAAAAAAAAAAAAAAAAAAAAAAAAAAAAAAAAAAAAAAAAAAAAAAAAAAAAAAAAAAAAAAAAAAAAAAAAAAAAAAAAAAAAAAAAAAAAAAAAAAAAAAAAAAAAAAAAAAAAAAAAAAAAAAAAAAAAAAAAAAAAAAAAAAAAAAAAAAAAAAAAAAAAAAAAAAAAAAAAAAAAAAAAAAAAAAAAAAAAAAAAAAAAAAAAAAAAAAAAAAAAAAAAAAAAAAAAAAAAAAAAAAAAAAAAAAAAAAAAAAAAAAAAAAAAAAAAAAAAAAAAAAAAAAAAAAAAAAAAAAAAAAAAAAAAAAAAAAAAAAAAAAAAAAAAAAAAAAAAAAAAAAAAAAAAAAAAAAAAAAAAAAAAAAAAAAAAAAAAAAAAAAAAAAAAAAAAAAAAAAAAAAAAAAAAAAAAAAAAAAAAAAAAAAAAAAAAAAAAAAAAAAAAAAAAAAAAAAAAAAAAAAAAAAAAAAAAAAAAAAAAAAAAAAAAAAAAAAAAAAAAAAAAAAAAAAAAAAAAAAAAAAAAAAAAAAAAAAAAAAAAAAAAAAAAAAAAAAAAAAAAAAAAAAAAAAAAAAAAAAAAAAAAAAAAAAAAAAAAAAAAAAAAAAAAAAAAAAAAAAAAAAAAAAAAAAAAAAAAAAAAAAAAAAAAAAAAAAAAAAAAAAAAAAAAAAAAAAAAAAAAAAAAAAAAAAAAAAAAAAAAAAAAAAAAAAAAAAAAAAAAAAAAAAAAAAAAAAAAAAAAAAAAAAAAAAAAAAAAAAAAAAAAAAAAAAAAAAAAAAAAAAAAAAAAAAAAAAAAAAAAAAAAAAAAAAAAAAAAAAAAAAAAAAAAAAAAAAAAAAAAAAAAAAAAAAAAAAAAAAAAAAAAAAAAAAAAAAAAAAAAAAAAAAAAAAAAAAAAAAAAAAAAAAAAAAAAAAAAAAAAAAAAAAAAAAAAAAAAAAAAAAAAAAAAAAAAAAAAAAAAAAAAAAAAAAAAAAAAAAAAAAAAAAAAAAAAAAAAAAAAAAAAAAAAAAAAAAAAAAAAAAAAAAAAAAAAAAAAAAAAAAAAAAAAAAAAAAAAAAAAAAAAAAAAAAAAAAAAAAAAAAAAAAAAAAAAAAAAAAAAAAAAAAAAAAAAAAAAAAAAAAAAAAAAAAAAAAAAAAAAAAAAAAAAAAAAAAAAAAAAAAAAAAAAAAAAAAAAAAAAAAAAAAAAAAAAAAAAAPZYQCaacqhihGy2S8Ewxau/RPkKwaEC1IhngE3cS0epUB5TnksAWLXdaDBoXSCgkZvAceM5KmkzBP2NiaKv8p0Kn1s=</c2pa:manifest></metadata><path fill-rule="evenodd" transform="rotate(-15 536.81 438.61)" d="M660.75 24.48C671.98 24.02 682.26 24.20 687.93 24.25C693.60 24.30 691.54 24.68 694.79 24.77C698.04 24.86 703.71 24.63 707.41 24.80C711.10 24.97 712.68 25.51 716.97 25.78C721.27 26.05 726.72 25.96 733.18 26.44C739.64 26.92 749.53 27.93 755.75 28.64C761.98 29.36 762.61 29.34 770.54 30.73C778.47 32.11 792.60 34.59 803.33 36.94C814.07 39.30 825.72 42.31 834.94 44.87C844.16 47.42 853.12 50.41 858.65 52.26C864.18 54.11 863.63 54.13 868.12 55.97C872.61 57.81 878.80 60.22 885.58 63.28C892.36 66.34 902.64 71.18 908.80 74.34C914.95 77.49 916.65 78.43 922.54 82.20C928.44 85.97 938.98 93.27 944.16 96.95C949.35 100.64 949.36 100.63 953.67 104.32C957.98 108.00 965.55 114.84 970.03 119.06C974.51 123.28 977.50 126.26 980.56 129.61C983.62 132.96 985.30 135.16 988.40 139.17C991.51 143.18 996.11 149.30 999.21 153.67C1002.30 158.04 1004.56 161.23 1007.00 165.38C1009.43 169.54 1011.48 173.46 1013.81 178.59C1016.15 183.73 1019.16 191.17 1020.99 196.20C1022.81 201.23 1023.48 203.81 1024.77 208.76C1026.06 213.71 1027.77 220.34 1028.73 225.88C1029.69 231.42 1030.23 236.70 1030.52 242.01C1030.82 247.32 1030.87 252.12 1030.52 257.73C1030.18 263.33 1029.36 270.62 1028.43 275.67C1027.50 280.71 1026.15 284.37 1024.94 287.99C1023.74 291.61 1022.40 294.76 1021.19 297.41C1019.97 300.06 1018.88 301.87 1017.64 303.88C1016.40 305.89 1015.35 307.48 1013.75 309.48C1012.15 311.48 1010.72 313.48 1008.03 315.89C1005.35 318.30 999.78 322.50 997.64 323.95C995.50 325.39 996.03 324.56 995.21 324.58C994.40 324.60 995.86 326.81 992.73 324.09C989.59 321.37 982.66 314.13 976.40 308.26C970.15 302.38 960.24 293.32 955.22 288.85C950.20 284.38 951.22 285.20 946.29 281.44C941.36 277.67 931.87 270.55 925.61 266.27C919.36 261.98 912.67 258.12 908.74 255.73C904.82 253.33 903.78 252.78 902.05 251.88C900.32 250.97 899.47 250.94 898.34 250.31C897.22 249.68 899.40 250.31 895.29 248.09C891.18 245.88 878.06 239.14 873.69 237.02C869.31 234.89 870.42 235.98 869.04 235.33C867.66 234.69 868.21 234.41 865.42 233.16C862.63 231.90 855.12 229.04 852.31 227.81C849.51 226.58 850.00 226.35 848.57 225.76C847.14 225.17 846.89 225.51 843.73 224.27C840.57 223.04 832.88 219.58 829.62 218.35C826.37 217.12 825.96 217.53 824.21 216.91C822.46 216.29 821.25 215.30 819.11 214.62C816.98 213.95 813.48 213.49 811.38 212.87C809.28 212.24 808.35 211.42 806.51 210.88C804.67 210.35 802.57 210.25 800.36 209.65C798.15 209.05 795.67 207.93 793.24 207.29C790.81 206.64 788.22 206.42 785.79 205.78C783.35 205.14 782.03 204.35 778.64 203.44C775.25 202.53 771.62 201.59 765.42 200.32C759.22 199.05 747.30 196.73 741.45 195.81C735.61 194.90 735.23 195.45 730.33 194.81C725.43 194.18 718.75 192.69 712.05 192.01C705.35 191.33 696.52 191.29 690.12 190.74C683.72 190.20 681.50 189.08 673.67 188.74C665.84 188.41 650.39 188.62 643.12 188.72C635.85 188.82 633.99 188.99 630.03 189.33C626.06 189.67 623.89 190.40 619.32 190.74C614.74 191.09 607.97 191.09 602.58 191.40C597.19 191.72 591.65 192.08 586.95 192.64C582.25 193.21 578.12 194.27 574.36 194.81C570.59 195.35 568.05 195.27 564.35 195.87C560.65 196.48 555.75 197.82 552.15 198.43C548.55 199.05 545.94 198.99 542.75 199.58C539.57 200.17 536.37 201.28 533.04 201.99C529.70 202.70 525.59 203.15 522.74 203.81C519.89 204.48 518.25 205.39 515.93 205.96C513.61 206.54 510.96 206.71 508.82 207.29C506.67 207.86 505.25 208.82 503.04 209.42C500.83 210.02 497.81 210.25 495.54 210.88C493.28 211.52 491.64 212.60 489.46 213.24C487.28 213.87 484.51 214.08 482.48 214.69C480.46 215.30 479.23 216.27 477.29 216.88C475.36 217.50 472.81 217.76 470.89 218.38C468.96 219.01 469.36 219.41 465.76 220.63C462.15 221.86 452.68 224.51 449.24 225.73C445.80 226.94 446.69 227.31 445.11 227.92C443.52 228.54 441.32 228.80 439.75 229.42C438.18 230.04 437.21 231.01 435.66 231.65C434.10 232.29 431.90 232.64 430.41 233.26C428.92 233.88 428.14 234.76 426.73 235.38C425.32 235.99 423.38 236.33 421.98 236.95C420.57 237.56 421.20 237.84 418.30 239.07C415.40 240.30 408.80 242.48 404.58 244.33C400.36 246.17 395.65 248.92 392.99 250.14C390.34 251.35 396.29 247.63 388.67 251.61C381.04 255.58 357.12 268.47 347.26 273.98C337.39 279.49 336.13 280.34 329.47 284.66C322.81 288.98 315.90 293.67 307.29 299.91C298.67 306.14 286.32 315.31 277.80 322.08C269.28 328.85 264.83 332.48 256.17 340.51C247.51 348.54 235.15 360.34 225.82 370.26C216.49 380.17 206.32 392.58 200.22 400.01C194.11 407.43 192.31 410.55 189.20 414.82C186.10 419.10 185.28 420.12 181.61 425.68C177.93 431.23 171.50 440.96 167.16 448.13C162.83 455.31 157.78 464.67 155.61 468.74C153.44 472.80 154.80 471.27 154.15 472.55C153.50 473.84 152.71 474.54 151.72 476.44C150.72 478.35 149.02 482.01 148.18 483.97C147.33 485.94 147.26 486.92 146.65 488.24C146.03 489.56 145.08 490.54 144.50 491.89C143.91 493.23 143.69 494.95 143.12 496.31C142.56 497.68 142.72 496.43 141.11 500.10C139.50 503.76 135.03 514.22 133.48 518.30C131.93 522.37 132.41 522.76 131.81 524.54C131.21 526.31 130.52 527.03 129.89 528.94C129.25 530.85 128.64 534.02 128.00 536.01C127.35 538.00 126.62 538.68 126.01 540.88C125.40 543.08 124.95 546.93 124.33 549.21C123.72 551.50 122.92 552.11 122.32 554.58C121.73 557.06 121.37 561.19 120.76 564.09C120.15 566.99 119.30 568.17 118.65 572.00C118.00 575.83 117.43 583.25 116.84 587.06C116.26 590.87 115.64 591.04 115.15 594.86C114.66 598.67 114.10 603.91 113.89 609.94C113.68 615.96 113.68 624.69 113.87 630.99C114.06 637.29 114.33 641.34 115.04 647.74C115.76 654.14 116.97 662.07 118.18 669.38C119.39 676.69 121.27 686.84 122.31 691.61C123.34 696.38 123.75 695.61 124.38 697.97C125.01 700.33 124.55 700.97 126.09 705.75C127.63 710.54 131.11 720.23 133.63 726.68C136.14 733.12 137.56 737.15 141.18 744.43C144.79 751.71 150.45 762.48 155.31 770.36C160.17 778.24 165.91 785.77 170.33 791.72C174.74 797.67 178.04 801.67 181.81 806.07C185.58 810.47 188.97 814.19 192.95 818.12C196.94 822.04 203.37 827.40 205.71 829.61C208.05 831.81 206.81 830.84 207.00 831.36C207.19 831.89 207.09 832.44 206.84 832.75C206.60 833.07 206.03 833.20 205.53 833.25C205.03 833.29 205.63 833.69 203.86 833.04C202.09 832.39 200.64 832.40 194.91 829.34C189.18 826.28 177.47 819.63 169.50 814.69C161.53 809.74 152.51 803.47 147.09 799.67C141.67 795.87 142.17 796.33 136.96 791.88C131.75 787.42 122.00 778.81 115.85 772.92C109.70 767.04 104.43 761.32 100.06 756.56C95.68 751.80 93.19 748.84 89.60 744.35C86.01 739.86 81.65 733.93 78.50 729.61C75.35 725.30 73.17 722.29 70.70 718.44C68.22 714.59 66.71 712.15 63.65 706.51C60.59 700.87 55.46 690.98 52.34 684.61C49.21 678.25 46.76 672.62 44.91 668.32C43.05 664.03 43.11 664.41 41.22 658.83C39.32 653.26 35.48 641.47 33.53 634.90C31.58 628.32 30.68 624.74 29.52 619.40C28.36 614.06 27.44 610.32 26.54 602.87C25.64 595.43 24.75 580.68 24.11 574.73C23.48 568.77 23.03 570.95 22.72 567.16C22.40 563.37 22.07 557.18 22.23 552.00C22.39 546.82 23.41 540.54 23.67 536.06C23.93 531.58 23.40 530.25 23.81 525.12C24.22 520.00 24.54 514.44 26.13 505.31C27.72 496.18 31.75 477.45 33.36 470.37C34.98 463.28 35.08 465.58 35.82 462.81C36.56 460.04 36.29 458.80 37.80 453.72C39.32 448.65 41.21 441.93 44.91 432.36C48.61 422.79 55.02 407.33 59.99 396.31C64.95 385.29 68.58 377.40 74.72 366.23C80.86 355.06 91.89 337.28 96.81 329.28C101.73 321.29 99.91 324.30 104.24 318.26C108.57 312.23 117.85 299.63 122.78 293.05C127.72 286.48 130.16 283.29 133.84 278.80C137.52 274.31 138.55 273.06 144.87 266.11C151.18 259.16 164.29 244.85 171.75 237.12C179.21 229.38 183.76 225.23 189.65 219.70C195.53 214.16 201.96 208.38 207.07 203.91C212.18 199.44 214.04 197.88 220.29 192.88C226.54 187.88 238.14 178.83 244.55 173.92C250.97 169.00 252.76 167.63 258.79 163.37C264.81 159.12 272.20 153.94 280.71 148.40C289.23 142.85 300.69 135.60 309.88 130.12C319.07 124.64 326.75 120.46 335.88 115.53C345.00 110.60 359.02 103.35 364.64 100.54C370.27 97.74 366.91 99.91 369.64 98.69C372.36 97.46 378.21 94.42 380.99 93.17C383.78 91.92 379.35 94.25 386.37 91.17C393.40 88.10 411.79 79.34 423.17 74.72C434.54 70.10 443.54 67.15 454.60 63.46C465.67 59.77 479.21 55.65 489.57 52.56C499.93 49.48 506.60 47.46 516.74 44.94C526.87 42.43 541.75 39.29 550.38 37.47C559.02 35.65 556.87 35.78 568.57 34.04C580.27 32.30 605.21 28.60 620.58 27.01C635.94 25.42 649.53 24.94 660.75 24.48ZM630.18 269.61C638.25 269.51 656.70 269.31 664.21 269.37C671.71 269.44 669.02 269.39 675.19 269.98C681.36 270.58 694.48 272.31 701.23 272.94C707.98 273.57 711.55 273.25 715.69 273.77C719.83 274.28 722.03 275.43 726.07 276.04C730.11 276.66 736.17 276.83 739.93 277.46C743.69 278.10 745.25 279.18 748.63 279.83C752.02 280.49 757.16 280.79 760.24 281.41C763.32 282.02 764.47 282.88 767.10 283.51C769.73 284.13 773.38 284.51 776.00 285.15C778.62 285.78 780.41 286.71 782.82 287.29C785.23 287.86 788.23 288.03 790.46 288.61C792.70 289.19 794.12 290.14 796.23 290.75C798.34 291.36 801.05 291.64 803.13 292.28C805.21 292.92 806.72 293.97 808.72 294.60C810.72 295.24 813.21 295.47 815.14 296.09C817.07 296.70 818.54 297.70 820.32 298.29C822.10 298.88 824.13 299.05 825.83 299.63C827.53 300.21 828.71 301.14 830.53 301.78C832.36 302.42 835.01 302.84 836.76 303.46C838.51 304.08 839.45 304.90 841.04 305.50C842.64 306.11 844.75 306.46 846.31 307.09C847.87 307.73 848.90 308.72 850.40 309.33C851.90 309.94 853.87 310.16 855.30 310.75C856.73 311.34 854.88 310.99 858.98 312.87C863.09 314.74 875.89 320.12 879.91 321.99C883.93 323.85 881.89 323.43 883.12 324.05C884.35 324.66 886.07 325.05 887.29 325.68C888.51 326.30 889.31 327.18 890.45 327.79C891.60 328.40 892.98 328.69 894.18 329.33C895.37 329.98 896.44 331.03 897.63 331.68C898.83 332.33 897.73 331.23 901.34 333.24C904.95 335.26 911.81 338.85 919.29 343.76C926.77 348.67 939.43 357.71 946.21 362.69C953.00 367.68 956.11 370.46 960.00 373.69C963.88 376.92 964.44 377.15 969.55 382.06C974.66 386.97 985.11 397.33 990.64 403.14C996.16 408.95 998.89 412.19 1002.69 416.92C1006.49 421.64 1009.15 424.95 1013.44 431.47C1017.72 438.00 1024.63 449.54 1028.41 456.04C1032.19 462.54 1033.64 465.13 1036.11 470.48C1038.59 475.82 1041.81 484.10 1043.26 488.11C1044.70 492.11 1044.16 492.39 1044.78 494.49C1045.41 496.59 1046.04 497.10 1047.00 500.71C1047.96 504.32 1049.62 510.65 1050.53 516.15C1051.44 521.65 1051.86 529.06 1052.48 533.71C1053.10 538.36 1053.96 539.20 1054.25 544.07C1054.53 548.93 1054.76 555.48 1054.21 562.91C1053.66 570.34 1052.12 581.82 1050.95 588.64C1049.78 595.46 1048.18 600.37 1047.18 603.85C1046.18 607.33 1045.57 607.60 1044.95 609.53C1044.33 611.46 1044.98 611.57 1043.48 615.43C1041.98 619.29 1038.99 626.76 1035.95 632.68C1032.91 638.60 1028.32 646.23 1025.24 650.97C1022.17 655.71 1020.46 657.69 1017.50 661.14C1014.54 664.60 1011.18 668.27 1007.48 671.69C1003.78 675.10 998.21 679.38 995.30 681.64C992.38 683.91 992.00 684.05 989.98 685.29C987.97 686.53 985.21 688.16 983.23 689.08C981.25 690.00 979.68 690.19 978.12 690.82C976.56 691.46 975.68 692.34 973.87 692.90C972.05 693.46 969.67 693.54 967.23 694.17C964.79 694.80 962.53 696.19 959.23 696.71C955.92 697.23 950.40 697.32 947.41 697.29C944.42 697.26 944.37 697.17 941.30 696.55C938.23 695.93 932.54 694.77 928.99 693.58C925.43 692.39 922.55 690.79 919.97 689.41C917.40 688.03 914.86 686.36 913.54 685.30C912.22 684.25 912.42 684.05 912.08 683.08C911.73 682.10 911.39 684.46 911.46 679.47C911.53 674.48 912.44 659.52 912.49 653.14C912.55 646.76 912.24 645.30 911.79 641.19C911.34 637.07 910.62 632.87 909.78 628.44C908.95 624.00 907.86 618.85 906.79 614.56C905.71 610.28 904.57 606.59 903.33 602.73C902.09 598.87 900.63 594.72 899.36 591.41C898.10 588.10 898.20 587.91 895.76 582.89C893.31 577.87 887.66 566.74 884.69 561.28C881.71 555.82 880.99 554.61 877.90 550.14C874.81 545.67 869.92 539.23 866.16 534.47C862.41 529.70 861.44 528.04 855.36 521.55C849.29 515.06 835.38 501.03 829.71 495.54C824.05 490.05 825.49 491.77 821.36 488.61C817.22 485.45 812.23 481.57 804.90 476.59C797.58 471.61 784.26 462.97 777.43 458.74C770.59 454.50 770.11 454.28 763.89 451.19C757.66 448.10 748.89 443.87 740.07 440.21C731.25 436.55 717.18 431.39 710.97 429.25C704.76 427.11 705.15 428.04 702.83 427.37C700.51 426.71 699.89 425.92 697.04 425.26C694.19 424.59 688.70 424.03 685.73 423.39C682.76 422.76 681.98 421.96 679.23 421.45C676.49 420.95 673.11 420.98 669.25 420.36C665.39 419.74 660.13 418.33 656.07 417.74C652.00 417.14 648.56 417.25 644.88 416.80C641.20 416.35 639.02 415.63 633.98 415.04C628.94 414.46 621.56 413.58 614.65 413.29C607.74 413.00 599.09 413.19 592.52 413.29C585.96 413.40 580.11 413.53 575.24 413.94C570.38 414.35 568.96 415.12 563.35 415.74C557.73 416.37 546.68 417.00 541.56 417.68C536.44 418.36 536.23 419.20 532.63 419.82C529.03 420.43 523.50 420.71 519.94 421.37C516.39 422.03 514.08 423.15 511.28 423.78C508.49 424.41 505.65 424.55 503.18 425.16C500.70 425.76 498.87 426.74 496.46 427.40C494.04 428.06 493.80 427.64 488.69 429.12C483.59 430.61 471.31 434.50 465.83 436.31C460.35 438.12 459.60 438.43 455.81 439.99C452.01 441.56 446.05 444.47 443.07 445.71C440.10 446.95 442.61 445.33 437.95 447.44C433.29 449.55 422.29 454.71 415.12 458.34C407.94 461.98 399.65 466.51 394.92 469.25C390.19 471.98 389.87 472.81 386.74 474.78C383.61 476.74 380.32 478.28 376.12 481.03C371.93 483.77 366.28 487.78 361.57 491.24C356.85 494.70 353.13 497.48 347.86 501.79C342.59 506.09 337.31 510.21 329.94 517.08C322.58 523.95 311.23 534.74 303.67 543.00C296.11 551.25 290.20 559.04 284.58 566.61C278.97 574.17 274.21 581.71 269.98 588.38C265.76 595.05 261.67 602.30 259.22 606.61C256.77 610.93 256.22 612.31 255.29 614.28C254.36 616.25 254.26 617.20 253.66 618.45C253.06 619.69 252.32 620.36 251.71 621.77C251.10 623.17 250.61 625.41 249.98 626.89C249.34 628.36 248.52 629.12 247.90 630.61C247.29 632.10 246.90 634.27 246.29 635.85C245.67 637.43 244.79 638.39 244.22 640.11C243.65 641.82 243.48 644.20 242.87 646.14C242.26 648.08 241.19 649.55 240.56 651.73C239.92 653.91 239.77 656.83 239.09 659.23C238.42 661.63 237.16 663.54 236.51 666.13C235.85 668.73 235.73 672.03 235.15 674.79C234.57 677.55 233.59 678.59 233.03 682.69C232.48 686.79 232.32 695.33 231.81 699.39C231.30 703.45 230.38 704.20 229.96 707.03C229.55 709.87 229.42 712.30 229.32 716.40C229.22 720.50 229.24 727.89 229.36 731.63C229.48 735.38 229.53 735.50 230.02 738.88C230.51 742.25 231.84 748.56 232.30 751.89C232.75 755.22 232.23 756.35 232.73 758.83C233.23 761.32 234.65 763.86 235.29 766.82C235.94 769.77 235.97 773.96 236.61 776.57C237.24 779.19 238.45 780.44 239.09 782.52C239.73 784.60 239.82 787.06 240.45 789.07C241.09 791.07 242.25 792.72 242.87 794.55C243.49 796.39 243.58 798.50 244.18 800.10C244.77 801.70 245.83 802.67 246.45 804.16C247.07 805.65 247.28 807.54 247.90 809.03C248.52 810.52 249.56 811.68 250.18 813.08C250.80 814.48 250.16 814.59 251.61 817.45C253.06 820.30 256.37 826.21 258.89 830.20C261.40 834.19 263.58 837.28 266.70 841.37C269.81 845.46 274.80 851.54 277.57 854.74C280.34 857.94 282.27 859.40 283.30 860.59C284.34 861.78 283.77 861.47 283.76 861.89C283.76 862.31 283.61 862.82 283.25 863.12C282.90 863.41 282.19 863.67 281.62 863.65C281.05 863.64 283.28 865.08 279.83 863.03C276.39 860.97 265.64 854.46 260.96 851.32C256.29 848.18 255.48 847.31 251.77 844.17C248.05 841.04 242.26 835.84 238.67 832.49C235.08 829.14 233.04 826.97 230.23 824.07C227.42 821.16 224.43 818.01 221.83 815.07C219.23 812.13 218.86 812.42 214.64 806.44C210.43 800.47 199.83 784.36 196.54 779.21C193.26 774.06 195.56 776.67 194.94 775.54C194.33 774.40 193.44 773.61 192.84 772.37C192.23 771.13 191.93 769.51 191.30 768.11C190.68 766.70 189.76 765.52 189.11 763.97C188.46 762.42 188.04 760.30 187.41 758.83C186.77 757.35 185.90 756.64 185.29 755.14C184.67 753.65 184.35 751.43 183.72 749.86C183.08 748.30 182.09 747.45 181.49 745.76C180.89 744.08 180.76 741.66 180.14 739.73C179.53 737.80 178.40 736.20 177.79 734.18C177.18 732.15 177.07 729.71 176.48 727.58C175.88 725.45 174.85 723.93 174.24 721.39C173.62 718.84 173.41 715.19 172.77 712.31C172.14 709.43 171.06 707.87 170.43 704.11C169.79 700.35 169.60 693.69 168.97 689.75C168.34 685.81 167.11 687.36 166.66 680.46C166.22 673.57 166.12 656.79 166.30 648.39C166.49 639.99 167.23 634.68 167.76 630.07C168.28 625.45 168.97 624.08 169.45 620.69C169.92 617.30 170.04 612.85 170.61 609.73C171.18 606.60 172.24 604.85 172.85 601.95C173.47 599.05 173.68 595.22 174.30 592.33C174.92 589.44 176.00 587.00 176.59 584.60C177.17 582.20 177.25 579.99 177.82 577.93C178.40 575.87 179.39 574.22 180.02 572.22C180.65 570.21 180.98 567.82 181.62 565.91C182.25 563.99 183.24 562.52 183.83 560.74C184.43 558.97 184.56 556.99 185.18 555.24C185.79 553.48 186.91 551.88 187.52 550.20C188.13 548.52 188.23 546.69 188.83 545.18C189.42 543.67 190.49 542.54 191.10 541.12C191.70 539.71 191.85 538.10 192.47 536.70C193.08 535.29 194.12 534.13 194.79 532.69C195.45 531.24 193.74 533.22 196.43 528.01C199.13 522.80 207.21 508.03 210.94 501.40C214.68 494.77 215.09 493.95 218.85 488.22C222.61 482.49 227.97 474.50 233.48 467.01C239.00 459.52 246.22 450.14 251.92 443.27C257.61 436.40 261.17 432.40 267.66 425.80C274.15 419.20 283.29 410.51 290.86 403.67C298.43 396.83 305.97 390.40 313.07 384.76C320.16 379.11 324.36 375.93 333.43 369.80C342.49 363.67 357.53 354.11 367.48 347.98C377.43 341.85 385.11 337.40 393.12 333.02C401.13 328.65 411.10 323.86 415.55 321.72C420.00 319.58 418.56 320.78 419.84 320.20C421.11 319.63 421.92 318.86 423.19 318.29C424.46 317.72 424.67 318.01 427.47 316.77C430.26 315.52 437.02 312.09 439.98 310.82C442.93 309.56 443.62 309.82 445.20 309.19C446.77 308.57 447.84 307.71 449.42 307.09C451.00 306.48 452.95 306.14 454.69 305.50C456.42 304.86 458.12 303.84 459.82 303.25C461.51 302.66 463.10 302.58 464.84 301.96C466.59 301.33 468.45 300.12 470.29 299.50C472.13 298.87 474.16 298.79 475.86 298.22C477.57 297.64 478.53 296.66 480.53 296.03C482.54 295.40 485.81 295.07 487.90 294.44C490.00 293.82 491.02 292.90 493.13 292.28C495.23 291.66 498.27 291.36 500.53 290.73C502.79 290.09 504.66 289.06 506.71 288.47C508.75 287.88 510.51 287.79 512.80 287.18C515.09 286.57 517.99 285.43 520.45 284.81C522.90 284.19 525.06 284.07 527.52 283.46C529.99 282.84 532.32 281.75 535.21 281.13C538.11 280.51 541.99 280.35 544.91 279.76C547.84 279.17 549.17 278.22 552.77 277.60C556.37 276.98 562.85 276.60 566.50 276.04C570.15 275.48 569.76 274.82 574.69 274.22C579.62 273.61 589.23 273.12 596.08 272.41C602.93 271.70 610.11 270.45 615.79 269.98C621.48 269.52 622.11 269.71 630.18 269.61ZM563.76 497.33C572.24 497.05 585.94 496.81 595.10 497.15C604.26 497.49 612.24 498.64 618.70 499.38C625.16 500.13 627.51 500.50 633.86 501.62C640.20 502.74 650.77 504.83 656.78 506.11C662.78 507.40 663.54 507.43 669.90 509.33C676.27 511.22 688.99 515.46 694.97 517.47C700.96 519.48 701.25 519.53 705.81 521.39C710.36 523.25 714.95 524.99 722.30 528.62C729.65 532.26 741.74 538.36 749.90 543.20C758.06 548.04 765.36 553.39 771.28 557.66C777.19 561.94 780.79 565.02 785.40 568.84C790.01 572.66 793.48 575.17 798.96 580.59C804.43 586.01 813.80 596.41 818.23 601.38C822.67 606.34 823.65 607.91 825.56 610.40C827.46 612.88 828.18 613.93 829.67 616.29C831.17 618.66 833.31 622.67 834.53 624.61C835.76 626.55 834.82 623.98 837.03 627.92C839.24 631.86 845.34 643.24 847.80 648.25C850.25 653.26 850.50 654.42 851.77 657.98C853.05 661.54 854.13 664.32 855.44 669.60C856.76 674.87 858.76 683.94 859.65 689.64C860.55 695.33 860.63 698.53 860.81 703.77C860.99 709.00 861.06 715.75 860.75 721.05C860.44 726.36 859.80 730.91 858.93 735.58C858.06 740.25 857.34 743.56 855.54 749.05C853.74 754.54 850.63 762.95 848.13 768.53C845.63 774.12 842.99 778.50 840.54 782.56C838.10 786.61 835.25 790.44 833.46 792.87C831.68 795.30 832.19 794.77 829.83 797.15C827.47 799.53 821.90 804.85 819.29 807.16C816.68 809.47 816.02 809.78 814.18 811.01C812.34 812.25 810.90 813.27 808.25 814.58C805.61 815.89 801.92 817.64 798.31 818.87C794.71 820.10 789.93 821.30 786.63 821.95C783.33 822.60 780.90 822.64 778.51 822.79C776.13 822.95 774.11 822.94 772.30 822.85C770.48 822.77 770.07 822.97 767.61 822.27C765.16 821.56 760.48 819.91 757.56 818.61C754.65 817.31 751.99 815.75 750.13 814.44C748.28 813.13 747.24 811.72 746.44 810.75C745.65 809.79 745.62 809.64 745.36 808.67C745.10 807.70 744.89 807.39 744.87 804.95C744.85 802.50 745.87 800.52 745.26 794.01C744.65 787.50 742.27 771.70 741.21 765.90C740.16 760.11 739.56 761.58 738.92 759.24C738.28 756.89 738.86 755.96 737.37 751.82C735.88 747.69 733.72 741.59 730.00 734.42C726.28 727.24 718.72 714.68 715.06 708.77C711.39 702.86 710.98 702.57 708.00 698.96C705.02 695.35 702.20 692.11 697.18 687.11C692.17 682.11 683.55 673.77 677.92 668.94C672.29 664.12 669.02 661.94 663.41 658.15C657.80 654.36 649.79 649.37 644.28 646.18C638.76 643.00 634.00 640.82 630.32 639.05C626.63 637.29 625.24 636.85 622.17 635.61C619.10 634.37 615.57 632.90 611.92 631.62C608.27 630.35 604.95 629.28 600.28 627.98C595.61 626.67 590.68 625.10 583.92 623.78C577.16 622.45 566.71 620.87 559.71 620.05C552.70 619.23 546.89 619.07 541.91 618.87C536.92 618.68 535.00 618.73 529.79 618.88C524.59 619.04 515.57 619.42 510.68 619.80C505.79 620.18 504.81 620.43 500.43 621.15C496.05 621.86 489.67 622.95 484.41 624.10C479.15 625.25 473.30 626.79 468.87 628.07C464.44 629.35 461.87 630.21 457.81 631.77C453.74 633.33 447.45 636.26 444.49 637.43C441.54 638.61 443.25 637.33 440.09 638.82C436.92 640.31 431.02 643.20 425.49 646.37C419.97 649.54 412.50 654.20 406.92 657.85C401.35 661.50 395.49 665.74 392.06 668.28C388.62 670.82 389.97 669.80 386.30 673.07C382.63 676.34 374.00 684.06 370.03 687.90C366.06 691.75 365.26 692.79 362.47 696.15C359.68 699.51 355.72 705.05 353.29 708.06C350.86 711.08 349.99 711.44 347.88 714.24C345.76 717.05 342.49 721.95 340.60 724.89C338.71 727.83 338.40 728.23 336.53 731.89C334.66 735.55 330.84 743.51 329.36 746.86C327.87 750.21 328.29 750.36 327.63 751.98C326.96 753.60 326.30 754.08 325.35 756.56C324.40 759.04 322.77 763.91 321.94 766.85C321.10 769.79 320.95 771.92 320.33 774.20C319.72 776.49 318.87 777.05 318.25 780.56C317.62 784.06 317.20 791.20 316.57 795.22C315.94 799.25 314.87 800.55 314.47 804.72C314.08 808.89 314.12 816.18 314.19 820.23C314.26 824.28 314.25 824.65 314.89 829.02C315.53 833.38 317.14 842.58 318.05 846.42C318.95 850.27 319.61 849.86 320.31 852.07C321.00 854.28 321.25 856.84 322.19 859.68C323.12 862.52 325.29 867.22 325.91 869.12C326.53 871.02 326.06 870.60 325.91 871.08C325.76 871.56 325.45 871.87 324.99 872.00C324.53 872.14 323.84 872.13 323.13 871.89C322.43 871.66 322.74 872.21 320.75 870.61C318.76 869.00 314.04 865.19 311.18 862.25C308.33 859.31 305.59 855.63 303.60 852.96C301.62 850.29 301.08 849.24 299.28 846.21C297.47 843.19 295.14 839.46 292.78 834.79C290.41 830.13 287.03 822.62 285.10 818.22C283.18 813.82 282.10 811.12 281.21 808.40C280.33 805.68 280.44 804.26 279.80 801.91C279.16 799.56 278.40 800.58 277.38 794.31C276.36 788.04 274.28 772.67 273.67 764.28C273.07 755.89 273.43 748.81 273.77 743.98C274.10 739.16 274.97 740.00 275.67 735.34C276.36 730.67 276.40 723.16 277.92 715.98C279.45 708.81 283.26 697.07 284.80 692.29C286.35 687.51 286.55 688.94 287.19 687.29C287.82 685.65 288.04 683.92 288.63 682.41C289.22 680.89 290.09 679.74 290.73 678.18C291.36 676.62 290.30 677.49 292.43 673.03C294.56 668.57 299.89 657.92 303.50 651.42C307.11 644.93 310.39 639.59 314.09 634.07C317.79 628.54 322.03 623.03 325.72 618.29C329.41 613.54 331.38 610.77 336.22 605.59C341.06 600.41 349.11 592.65 354.75 587.22C360.38 581.79 365.13 577.22 370.05 573.00C374.97 568.78 380.03 565.06 384.25 561.90C388.47 558.74 391.62 556.53 395.36 554.03C399.10 551.53 399.21 551.12 406.68 546.90C414.16 542.69 431.92 533.04 440.20 528.76C448.48 524.48 450.26 523.71 456.38 521.22C462.49 518.72 469.30 516.21 476.90 513.80C484.50 511.39 494.65 508.62 502.00 506.74C509.34 504.86 513.92 503.81 520.95 502.50C527.98 501.18 537.06 499.72 544.19 498.86C551.33 498.00 555.27 497.62 563.76 497.33ZM484.57 717.82C487.17 717.23 488.28 716.93 491.14 716.53C494 716.13 497.83 715.57 501.66 715.44C505.51 715.31 511.45 715.55 514.18 715.73C516.91 715.92 515.56 716.22 518.01 716.6C520.45 716.97 526.21 717.57 528.85 718C531.51 718.44 532.56 718.79 533.91 719.24C535.27 719.68 534.74 719.82 537.03 720.69C539.32 721.58 544.46 723.03 547.7 724.46C550.94 725.9 553.63 727.56 556.45 729.28C559.29 731.01 561.85 732.53 564.69 734.85C567.5 737.14 571.4 741.04 573.39 743.11C575.39 745.18 575.55 745.6 576.67 747.28C577.82 748.99 578.85 750.44 580.2 753.23C581.54 756.03 583.79 760.99 584.74 764.07C585.72 767.13 585.89 769.69 586.01 771.69C586.13 773.68 585.61 774.37 585.52 776.07C585.42 777.78 585.62 779.79 585.4 781.9C585.17 784.01 584.64 786.9 584.2 788.75C583.77 790.62 583.69 791.06 582.78 793.09C581.88 795.12 580.99 797.51 578.78 800.94C576.57 804.36 571.88 809.91 569.49 813.66C567.1 817.4 565.55 821.11 564.43 823.43C563.3 825.74 564.14 823.37 562.71 827.55C561.26 831.71 557.51 843.68 555.78 848.42C554.05 853.18 553.2 854.27 552.32 856.05C551.44 857.86 551.72 857.35 550.47 859.21C549.24 861.05 546.99 864.75 544.92 867.15C542.84 869.54 540.15 871.88 538.05 873.57C535.94 875.24 534.91 875.96 532.3 877.24C529.68 878.5 524.48 880.39 522.32 881.18C520.15 882 521.43 881.62 519.29 882.02C517.18 882.44 513.3 883.43 509.57 883.67C505.87 883.9 500.17 883.72 497.01 883.44C493.87 883.14 492.96 882.75 490.66 881.97C488.35 881.16 485.14 879.64 483.19 878.68C481.23 877.74 480.55 877.41 478.95 876.29C477.36 875.18 475.56 873.81 473.66 872.03C471.74 870.25 469.31 867.81 467.5 865.61C465.67 863.42 463.92 860.44 462.73 858.88C461.56 857.34 462 858.49 460.41 856.3C458.82 854.11 455.63 848.85 453.28 845.81C450.92 842.75 447.87 839.73 446.29 838.03C444.72 836.33 445.22 836.81 443.84 835.63C442.45 834.43 440.03 832.46 437.98 830.9C435.92 829.33 433.65 828.04 431.49 826.24C429.29 824.42 426.54 821.83 424.91 819.99C423.28 818.16 422.81 817.21 421.73 815.22C420.66 813.26 419.29 810.4 418.42 808.14C417.52 805.89 416.92 803.64 416.43 801.68C415.94 799.7 415.71 798.16 415.49 796.34C415.24 794.5 414.99 793.13 415.05 790.7C415.1 788.27 415.49 784.25 415.81 781.77C416.13 779.29 416.19 778.33 416.99 775.78C417.79 773.24 419.08 769.61 420.61 766.5C422.15 763.38 424.67 759.53 426.21 757.1C427.76 754.68 427.63 754.61 429.88 751.99C432.13 749.37 436.75 744.28 439.71 741.41C442.64 738.54 445.51 736.37 447.53 734.78C449.57 733.2 449.45 733.26 451.86 731.88C454.26 730.52 459.64 727.88 461.98 726.54C464.3 725.22 463.59 725.01 465.86 723.93C468.12 722.86 472.47 721.13 475.59 720.11C478.71 719.08 481.98 718.42 484.57 717.82Z"></path></svg>